<svg width="200" height="52" viewBox="0 0 300 70" fill="none" xmlns="http://www.w3.org/2000/svg">
<path fill-rule="evenodd" clip-rule="evenodd" d="M3.63636 0H296.364V3.67059H300V74.3294H296.364V78H3.63636V74.3294H0V3.67059H3.63636V0Z" fill="#1E1E1F"/>
<path fill-rule="evenodd" clip-rule="evenodd" d="M10.9091 7.34119H289.091H292.727V11.0118V60.5647H289.091V64.2353H10.9091V60.5647H7.27274V11.0118H10.9091V7.34119Z" fill="#3C8527"/>
<path fill-rule="evenodd" clip-rule="evenodd" d="M10.9091 7.34119H289.091H292.727V11.0118V60.5647H289.091V64.2353H10.9091V60.5647H7.27274V11.0118H10.9091V7.34119Z" fill="#3C8527"/>
<path fill-rule="evenodd" clip-rule="evenodd" d="M292.727 7.34119H289.091V11.0118H292.727V7.34119ZM10.9091 60.5647H7.27274V64.2353H10.9091V60.5647Z" fill="#72A763"/>
<path fill-rule="evenodd" clip-rule="evenodd" d="M7.27272 64.2353H3.63635V67.9059V67.9059V70.6588H7.27272V74.3294H292.727V70.6588H296.364V67.9059V64.2353H292.727V67.9059L7.27272 67.9059V64.2353Z" fill="#1D4D13"/>
<path fill-rule="evenodd" clip-rule="evenodd" d="M292.727 7.34119H296.364V64.2353L292.727 64.2353V67.9059H7.27274V64.2353H289.091V60.5647H292.727L292.727 7.34119Z" fill="#4F913C"/>
<path fill-rule="evenodd" clip-rule="evenodd" d="M292.727 3.67059H7.27272V7.34118H3.63635V64.2353H7.27272L7.27272 11.0118H10.9091V7.34118H292.727V3.67059Z" fill="#639D52"/>
</svg>
