<svg width="3307" height="3121" viewBox="0 0 3307 3121" fill="none" xmlns="http://www.w3.org/2000/svg">
<g opacity="0.15" clip-path="url(#clip0_1298_12254)">
<path d="M1653.72 1560.94L1.98828 1659.61L3.89193 1435.63L1653.72 1558.65V1560.94Z" fill="white"/>
<path d="M1653.34 1560.81L38.791 1218.12L106.942 1003.65L1654.23 1558.78L1653.46 1560.81H1653.34Z" fill="white"/>
<path d="M1653.09 1560.68L204.791 804.274L333.985 616.439L1654.35 1558.91L1653.09 1560.68Z" fill="white"/>
<path d="M1669.64 1579.88L503.971 469.994L683.802 323.887L1671.41 1578.35L1669.64 1579.88Z" fill="white"/>
<path d="M1652.58 1560.18L863.197 186.107L1079.07 93.5215L1654.73 1559.29L1652.58 1560.3V1560.18Z" fill="white"/>
<path d="M1652.58 1559.92L1302.56 31.8831L1537.34 0.175781L1654.86 1559.67L1652.58 1559.92Z" fill="white"/>
<path d="M1652.58 1559.67L1770.09 0.175781L2004.88 31.8831L1654.86 1559.92L1652.58 1559.67Z" fill="white"/>
<path d="M1652.58 1559.29L2228.37 93.5215L2444.24 186.107L1654.86 1560.3L1652.58 1559.29Z" fill="white"/>
<path d="M1652.83 1559.03L2640.44 304.566L2820.27 450.674L1654.61 1560.43L1652.83 1559.16V1559.03Z" fill="white"/>
<path d="M1653.09 1558.91L2973.46 616.313L3102.65 804.02L1654.36 1560.68L1653.09 1558.78V1558.91Z" fill="white"/>
<path d="M1653.34 1558.78L3200.49 1003.65L3268.77 1218.12L1654.1 1560.94L1653.34 1558.78Z" fill="white"/>
<path d="M1652.07 1558.65L37.5254 1901.47L105.676 2115.94L1652.96 1560.81L1652.2 1558.65H1652.07Z" fill="white"/>
<path d="M1651.82 1558.91L203.521 2315.44L332.716 2503.41L1653.09 1560.68L1651.82 1558.91Z" fill="white"/>
<path d="M1651.56 1559.03L485.896 2668.92L665.728 2815.02L1653.34 1560.56L1651.56 1559.03Z" fill="white"/>
<path d="M1651.31 1559.29L861.928 2933.48L1077.8 3026.07L1653.46 1560.17L1651.31 1559.16V1559.29Z" fill="white"/>
<path d="M1651.31 1559.67L1301.29 3087.71L1536.07 3119.41L1653.59 1559.92L1651.31 1559.67Z" fill="white"/>
<path d="M1651.31 1559.92L1768.83 3119.41L2003.61 3087.71L1653.59 1559.67L1651.31 1559.92Z" fill="white"/>
<path d="M1651.31 1560.18L2227.1 3026.07L2442.97 2933.48L1653.59 1559.29L1651.31 1560.3V1560.18Z" fill="white"/>
<path d="M1651.56 1560.56L2639.17 2815.03L2819.01 2668.92L1653.34 1559.16L1651.56 1560.43V1560.56Z" fill="white"/>
<path d="M1651.81 1560.68L2972.18 2503.4L3101.38 2315.57L1653.08 1558.91L1651.81 1560.68Z" fill="white"/>
<path d="M1652.07 1560.81L3199.22 2115.94L3267.5 1901.47L1652.83 1558.65L1652.07 1560.81Z" fill="white"/>
<path d="M1652.45 1560.94L3302.28 1683.96L3304.18 1459.98L1652.45 1558.65V1560.94Z" fill="white"/>
</g>
<defs>
<clipPath id="clip0_1298_12254">
<rect width="3306" height="3120" fill="white" transform="translate(0.71875 0.175781)"/>
</clipPath>
</defs>
</svg>
